<?xml version="1.0" encoding="UTF-8" standalone="no"?>
<!DOCTYPE svg PUBLIC "-//W3C//DTD SVG 1.1//EN" "http://www.w3.org/Graphics/SVG/1.1/DTD/svg11.dtd">
<svg width="100%" height="100%" viewBox="0 0 1024 1024" version="1.1" xmlns="http://www.w3.org/2000/svg" xmlns:xlink="http://www.w3.org/1999/xlink" xml:space="preserve" xmlns:serif="http://www.serif.com/" style="fill-rule:evenodd;clip-rule:evenodd;stroke-linejoin:round;stroke-miterlimit:2;">
    <g id="Android-Google-Play" serif:id="Android Google Play" transform="matrix(1.766773,0,0,1.766773,-356.600639,-637.955272)">
        <path d="M201.837,361.085L201.837,470.737L311.489,470.737L311.489,361.085L201.837,361.085ZM342.818,361.085L342.818,392.414L327.154,392.414L327.154,486.401L342.818,486.401L342.818,439.408L374.147,439.408L374.147,408.079L358.483,408.079L358.483,392.414L374.147,392.414L374.147,408.079L389.812,408.079L389.812,486.401L358.483,486.401L358.483,502.066L327.154,502.066L327.154,517.73L358.483,517.73L358.483,549.059L374.147,549.059L374.147,564.724L358.483,564.724L358.483,580.388L374.147,580.388L374.147,611.718L389.812,611.718L389.812,596.053L436.805,596.053L436.805,611.718L468.134,611.718L468.134,596.053L452.47,596.053L452.47,580.388L436.805,580.388L436.805,517.73L468.134,517.73L468.134,533.395L483.799,533.395L483.799,486.401L468.134,486.401L468.134,502.066L452.47,502.066L452.47,470.737L436.805,470.737L436.805,455.072L421.141,455.072L421.141,439.408L436.805,439.408L436.805,408.079L421.141,408.079L421.141,376.75L389.812,376.75L389.812,361.085L374.147,361.085L374.147,376.75L358.483,376.75L358.483,361.085L342.818,361.085ZM436.805,361.085L436.805,408.079L452.47,408.079L452.47,423.743L468.134,423.743L468.134,439.408L452.47,439.408L452.47,470.737L468.134,470.737L468.134,455.072L483.799,455.072L483.799,470.737L499.463,470.737L499.463,455.072L483.799,455.072L483.799,439.408L577.786,439.408L577.786,423.743L562.121,423.743L562.121,392.414L499.463,392.414L499.463,376.75L577.786,376.75L577.786,361.085L483.799,361.085L483.799,376.75L468.134,376.75L468.134,361.085L436.805,361.085ZM593.451,361.085L593.451,392.414L609.115,392.414L609.115,408.079L593.451,408.079L593.451,423.743L640.444,423.743L640.444,439.408L624.78,439.408L624.78,455.072L640.444,455.072L640.444,486.401L656.109,486.401L656.109,423.743L640.444,423.743L640.444,408.079L656.109,408.079L656.109,361.085L640.444,361.085L640.444,376.75L624.78,376.75L624.78,361.085L593.451,361.085ZM671.773,361.085L671.773,470.737L781.425,470.737L781.425,361.085L671.773,361.085ZM295.824,376.75L295.824,455.072L217.502,455.072L217.502,376.75L295.824,376.75ZM765.76,376.75L765.76,455.072L687.438,455.072L687.438,376.75L765.76,376.75ZM233.166,392.414L233.166,439.408L280.16,439.408L280.16,392.414L233.166,392.414ZM405.476,392.414L405.476,408.079L421.141,408.079L421.141,423.743L405.476,423.743L405.476,408.079L389.812,408.079L389.812,392.414L405.476,392.414ZM452.47,392.414L452.47,376.75L468.134,376.75L468.134,392.414L499.463,392.414L499.463,408.079L515.128,408.079L515.128,423.743L499.463,423.743L499.463,408.079L468.134,408.079L468.134,392.414L452.47,392.414ZM703.102,392.414L703.102,439.408L750.096,439.408L750.096,392.414L703.102,392.414ZM546.457,408.079L546.457,423.743L530.792,423.743L530.792,408.079L546.457,408.079ZM342.818,423.743L342.818,408.079L358.483,408.079L358.483,423.743L342.818,423.743ZM593.451,439.408L593.451,455.072L609.115,455.072L609.115,470.737L624.78,470.737L624.78,455.072L609.115,455.072L609.115,439.408L593.451,439.408ZM358.483,455.072L358.483,470.737L374.147,470.737L374.147,455.072L358.483,455.072ZM515.128,455.072L515.128,470.737L530.792,470.737L530.792,486.401L546.457,486.401L546.457,502.066L562.121,502.066L562.121,517.73L577.786,517.73L577.786,533.395L609.115,533.395L609.115,549.059L577.786,549.059L577.786,533.395L562.121,533.395L562.121,517.73L546.457,517.73L546.457,502.066L515.128,502.066L515.128,533.395L530.792,533.395L530.792,549.059L546.457,549.059L546.457,564.724L562.121,564.724L562.121,580.388L593.451,580.388L593.451,564.724L640.444,564.724L640.444,580.388L624.78,580.388L624.78,596.053L640.444,596.053L640.444,611.718L656.109,611.718L656.109,627.382L687.438,627.382L687.438,643.047L703.102,643.047L703.102,658.711L671.773,658.711L671.773,643.047L656.109,643.047L656.109,627.382L640.444,627.382L640.444,611.718L562.121,611.718L562.121,596.053L546.457,596.053L546.457,580.388L530.792,580.388L530.792,549.059L515.128,549.059L515.128,533.395L499.463,533.395L499.463,549.059L515.128,549.059L515.128,564.724L483.799,564.724L483.799,549.059L468.134,549.059L468.134,533.395L452.47,533.395L452.47,580.388L468.134,580.388L468.134,596.053L483.799,596.053L483.799,611.718L499.463,611.718L499.463,580.388L530.792,580.388L530.792,611.718L562.121,611.718L562.121,643.047L577.786,643.047L577.786,627.382L593.451,627.382L593.451,643.047L609.115,643.047L609.115,658.711L640.444,658.711L640.444,674.376L656.109,674.376L656.109,690.04L687.438,690.04L687.438,674.376L703.102,674.376L703.102,690.04L718.767,690.04L718.767,705.705L656.109,705.705L656.109,690.04L640.444,690.04L640.444,705.705L656.109,705.705L656.109,721.369L640.444,721.369L640.444,705.705L624.78,705.705L624.78,721.369L640.444,721.369L640.444,737.034L656.109,737.034L656.109,752.698L640.444,752.698L640.444,768.363L624.78,768.363L624.78,721.369L609.115,721.369L609.115,737.034L577.786,737.034L577.786,721.369L562.121,721.369L562.121,705.705L577.786,705.705L577.786,690.04L593.451,690.04L593.451,705.705L609.115,705.705L609.115,690.04L624.78,690.04L624.78,674.376L577.786,674.376L577.786,658.711L562.121,658.711L562.121,643.047L546.457,643.047L546.457,658.711L515.128,658.711L515.128,690.04L483.799,690.04L483.799,674.376L468.134,674.376L468.134,690.04L483.799,690.04L483.799,705.705L515.128,705.705L515.128,721.369L530.792,721.369L530.792,737.034L515.128,737.034L515.128,752.698L483.799,752.698L483.799,737.034L452.47,737.034L452.47,721.369L468.134,721.369L468.134,690.04L452.47,690.04L452.47,674.376L436.805,674.376L436.805,658.711L389.812,658.711L389.812,627.382L374.147,627.382L374.147,643.047L358.483,643.047L358.483,611.718L342.818,611.718L342.818,596.053L358.483,596.053L358.483,580.388L295.824,580.388L295.824,564.724L280.16,564.724L280.16,580.388L233.166,580.388L233.166,564.724L217.502,564.724L217.502,517.73L201.837,517.73L201.837,564.724L217.502,564.724L217.502,580.388L201.837,580.388L201.837,596.053L217.502,596.053L217.502,627.382L233.166,627.382L233.166,643.047L248.831,643.047L248.831,627.382L233.166,627.382L233.166,611.718L264.495,611.718L264.495,596.053L280.16,596.053L280.16,627.382L264.495,627.382L264.495,643.047L295.824,643.047L295.824,658.711L311.489,658.711L311.489,674.376L327.154,674.376L327.154,690.04L342.818,690.04L342.818,674.376L358.483,674.376L358.483,658.711L389.812,658.711L389.812,705.705L405.476,705.705L405.476,674.376L421.141,674.376L421.141,721.369L436.805,721.369L436.805,737.034L452.47,737.034L452.47,752.698L483.799,752.698L483.799,768.363L515.128,768.363L515.128,784.027L530.792,784.027L530.792,799.692L546.457,799.692L546.457,815.356L562.121,815.356L562.121,831.021L577.786,831.021L577.786,815.356L609.115,815.356L609.115,799.692L593.451,799.692L593.451,784.027L577.786,784.027L577.786,799.692L546.457,799.692L546.457,784.027L530.792,784.027L530.792,768.363L577.786,768.363L577.786,752.698L609.115,752.698L609.115,799.692L624.78,799.692L624.78,831.021L640.444,831.021L640.444,846.685L609.115,846.685L609.115,831.021L593.451,831.021L593.451,846.685L609.115,846.685L609.115,862.35L593.451,862.35L593.451,846.685L562.121,846.685L562.121,831.021L546.457,831.021L546.457,815.356L499.463,815.356L499.463,831.021L515.128,831.021L515.128,846.685L499.463,846.685L499.463,831.021L483.799,831.021L483.799,799.692L468.134,799.692L468.134,768.363L436.805,768.363L436.805,784.027L452.47,784.027L452.47,799.692L468.134,799.692L468.134,815.356L452.47,815.356L452.47,831.021L421.141,831.021L421.141,815.356L436.805,815.356L436.805,799.692L405.476,799.692L405.476,831.021L421.141,831.021L421.141,846.685L436.805,846.685L436.805,878.015L452.47,878.015L452.47,893.679L468.134,893.679L468.134,878.015L452.47,878.015L452.47,846.685L468.134,846.685L468.134,831.021L483.799,831.021L483.799,846.685L499.463,846.685L499.463,878.015L483.799,878.015L483.799,862.35L468.134,862.35L468.134,878.015L483.799,878.015L483.799,893.679L530.792,893.679L530.792,925.008L577.786,925.008L577.786,940.673L624.78,940.673L624.78,925.008L593.451,925.008L593.451,909.344L562.121,909.344L562.121,893.679L546.457,893.679L546.457,878.015L515.128,878.015L515.128,862.35L546.457,862.35L546.457,878.015L562.121,878.015L562.121,893.679L577.786,893.679L577.786,878.015L562.121,878.015L562.121,862.35L577.786,862.35L577.786,878.015L593.451,878.015L593.451,909.344L624.78,909.344L624.78,925.008L656.109,925.008L656.109,909.344L671.773,909.344L671.773,893.679L687.438,893.679L687.438,878.015L703.102,878.015L703.102,893.679L718.767,893.679L718.767,862.35L734.431,862.35L734.431,909.344L765.76,909.344L765.76,925.008L718.767,925.008L718.767,909.344L703.102,909.344L703.102,940.673L781.425,940.673L781.425,862.35L765.76,862.35L765.76,846.685L750.096,846.685L750.096,831.021L734.431,831.021L734.431,815.356L750.096,815.356L750.096,831.021L765.76,831.021L765.76,846.685L781.425,846.685L781.425,831.021L765.76,831.021L765.76,815.356L750.096,815.356L750.096,799.692L718.767,799.692L718.767,784.027L703.102,784.027L703.102,768.363L671.773,768.363L671.773,752.698L687.438,752.698L687.438,737.034L703.102,737.034L703.102,752.698L718.767,752.698L718.767,768.363L734.431,768.363L734.431,784.027L750.096,784.027L750.096,799.692L765.76,799.692L765.76,815.356L781.425,815.356L781.425,799.692L765.76,799.692L765.76,784.027L781.425,784.027L781.425,768.363L734.431,768.363L734.431,752.698L718.767,752.698L718.767,721.369L734.431,721.369L734.431,690.04L750.096,690.04L750.096,674.376L718.767,674.376L718.767,643.047L703.102,643.047L703.102,627.382L687.438,627.382L687.438,611.718L718.767,611.718L718.767,596.053L734.431,596.053L734.431,580.388L703.102,580.388L703.102,564.724L718.767,564.724L718.767,549.059L687.438,549.059L687.438,533.395L703.102,533.395L703.102,502.066L750.096,502.066L750.096,533.395L765.76,533.395L765.76,549.059L734.431,549.059L734.431,517.73L718.767,517.73L718.767,549.059L734.431,549.059L734.431,564.724L781.425,564.724L781.425,517.73L765.76,517.73L765.76,502.066L750.096,502.066L750.096,486.401L671.773,486.401L671.773,502.066L687.438,502.066L687.438,517.73L671.773,517.73L671.773,549.059L656.109,549.059L656.109,533.395L640.444,533.395L640.444,517.73L624.78,517.73L624.78,486.401L609.115,486.401L609.115,517.73L577.786,517.73L577.786,502.066L593.451,502.066L593.451,486.401L577.786,486.401L577.786,470.737L562.121,470.737L562.121,455.072L546.457,455.072L546.457,470.737L562.121,470.737L562.121,486.401L546.457,486.401L546.457,470.737L530.792,470.737L530.792,455.072L515.128,455.072ZM577.786,455.072L577.786,470.737L593.451,470.737L593.451,455.072L577.786,455.072ZM201.837,486.401L201.837,502.066L217.502,502.066L217.502,486.401L201.837,486.401ZM233.166,486.401L233.166,533.395L248.831,533.395L248.831,549.059L295.824,549.059L295.824,564.724L311.489,564.724L311.489,549.059L295.824,549.059L295.824,533.395L264.495,533.395L264.495,517.73L248.831,517.73L248.831,502.066L264.495,502.066L264.495,517.73L295.824,517.73L295.824,533.395L311.489,533.395L311.489,549.059L327.154,549.059L327.154,564.724L342.818,564.724L342.818,533.395L327.154,533.395L327.154,517.73L295.824,517.73L295.824,502.066L311.489,502.066L311.489,486.401L233.166,486.401ZM436.805,502.066L405.476,502.066L405.476,455.072L421.141,455.072L421.141,470.737L436.805,470.737L436.805,502.066ZM640.444,502.066L640.444,517.73L656.109,517.73L656.109,502.066L640.444,502.066ZM389.812,517.73L389.812,549.059L405.476,549.059L405.476,517.73L389.812,517.73ZM421.141,517.73L421.141,564.724L405.476,564.724L405.476,580.388L389.812,580.388L389.812,549.059L374.147,549.059L374.147,502.066L405.476,502.066L405.476,517.73L421.141,517.73ZM562.121,549.059L546.457,549.059L546.457,533.395L562.121,533.395L562.121,549.059ZM687.438,564.724L687.438,596.053L671.773,596.053L671.773,580.388L656.109,580.388L656.109,564.724L640.444,564.724L640.444,549.059L656.109,549.059L656.109,564.724L687.438,564.724ZM483.799,580.388L468.134,580.388L468.134,564.724L483.799,564.724L483.799,580.388ZM750.096,580.388L750.096,611.718L781.425,611.718L781.425,580.388L750.096,580.388ZM311.489,596.053L311.489,611.718L342.818,611.718L342.818,658.711L311.489,658.711L311.489,643.047L295.824,643.047L295.824,627.382L311.489,627.382L311.489,611.718L295.824,611.718L295.824,596.053L311.489,596.053ZM421.141,611.718L421.141,627.382L436.805,627.382L436.805,658.711L452.47,658.711L452.47,627.382L436.805,627.382L436.805,611.718L421.141,611.718ZM515.128,611.718L515.128,627.382L483.799,627.382L483.799,643.047L530.792,643.047L530.792,611.718L515.128,611.718ZM671.773,611.718L656.109,611.718L656.109,596.053L671.773,596.053L671.773,611.718ZM734.431,611.718L734.431,643.047L750.096,643.047L750.096,658.711L765.76,658.711L765.76,674.376L781.425,674.376L781.425,643.047L765.76,643.047L765.76,627.382L750.096,627.382L750.096,611.718L734.431,611.718ZM201.837,627.382L201.837,643.047L217.502,643.047L217.502,658.711L233.166,658.711L233.166,643.047L217.502,643.047L217.502,627.382L201.837,627.382ZM609.115,643.047L609.115,627.382L640.444,627.382L640.444,643.047L656.109,643.047L656.109,658.711L671.773,658.711L671.773,674.376L656.109,674.376L656.109,658.711L640.444,658.711L640.444,643.047L609.115,643.047ZM248.831,658.711L248.831,690.04L311.489,690.04L311.489,705.705L327.154,705.705L327.154,690.04L311.489,690.04L311.489,674.376L295.824,674.376L295.824,658.711L280.16,658.711L280.16,674.376L264.495,674.376L264.495,658.711L248.831,658.711ZM483.799,658.711L483.799,674.376L499.463,674.376L499.463,658.711L483.799,658.711ZM201.837,674.376L201.837,705.705L233.166,705.705L233.166,752.698L248.831,752.698L248.831,721.369L264.495,721.369L264.495,784.027L248.831,784.027L248.831,768.363L233.166,768.363L233.166,752.698L217.502,752.698L217.502,737.034L201.837,737.034L201.837,815.356L217.502,815.356L217.502,768.363L233.166,768.363L233.166,784.027L248.831,784.027L248.831,799.692L264.495,799.692L264.495,815.356L280.16,815.356L280.16,752.698L311.489,752.698L311.489,768.363L327.154,768.363L327.154,752.698L311.489,752.698L311.489,737.034L280.16,737.034L280.16,721.369L264.495,721.369L264.495,705.705L248.831,705.705L248.831,690.04L217.502,690.04L217.502,674.376L201.837,674.376ZM546.457,674.376L546.457,721.369L562.121,721.369L562.121,737.034L546.457,737.034L546.457,721.369L530.792,721.369L530.792,674.376L546.457,674.376ZM358.483,690.04L358.483,721.369L374.147,721.369L374.147,690.04L358.483,690.04ZM280.16,705.705L280.16,721.369L311.489,721.369L311.489,737.034L327.154,737.034L327.154,752.698L358.483,752.698L358.483,784.027L389.812,784.027L389.812,768.363L374.147,768.363L374.147,737.034L358.483,737.034L358.483,721.369L342.818,721.369L342.818,737.034L327.154,737.034L327.154,721.369L311.489,721.369L311.489,705.705L280.16,705.705ZM436.805,705.705L436.805,690.04L452.47,690.04L452.47,705.705L436.805,705.705ZM750.096,705.705L750.096,737.034L734.431,737.034L734.431,752.698L765.76,752.698L765.76,721.369L781.425,721.369L781.425,705.705L750.096,705.705ZM389.812,721.369L389.812,768.363L405.476,768.363L405.476,721.369L389.812,721.369ZM483.799,721.369L483.799,737.034L499.463,737.034L499.463,721.369L483.799,721.369ZM295.824,768.363L295.824,784.027L311.489,784.027L311.489,768.363L295.824,768.363ZM327.154,784.027L327.154,799.692L358.483,799.692L358.483,784.027L327.154,784.027ZM656.109,784.027L656.109,768.363L671.773,768.363L671.773,784.027L656.109,784.027ZM295.824,799.692L295.824,815.356L311.489,815.356L311.489,799.692L295.824,799.692ZM374.147,799.692L374.147,815.356L327.154,815.356L327.154,831.021L342.818,831.021L342.818,846.685L327.154,846.685L327.154,909.344L342.818,909.344L342.818,925.008L327.154,925.008L327.154,940.673L358.483,940.673L358.483,925.008L389.812,925.008L389.812,878.015L374.147,878.015L374.147,893.679L358.483,893.679L358.483,878.015L342.818,878.015L342.818,862.35L374.147,862.35L374.147,846.685L389.812,846.685L389.812,862.35L421.141,862.35L421.141,846.685L405.476,846.685L405.476,831.021L389.812,831.021L389.812,799.692L374.147,799.692ZM640.444,799.692L640.444,784.027L656.109,784.027L656.109,799.692L640.444,799.692ZM703.102,815.356L703.102,862.35L656.109,862.35L656.109,815.356L703.102,815.356ZM201.837,831.021L201.837,940.673L311.489,940.673L311.489,831.021L201.837,831.021ZM671.773,831.021L671.773,846.685L687.438,846.685L687.438,831.021L671.773,831.021ZM295.824,846.685L295.824,925.008L217.502,925.008L217.502,846.685L295.824,846.685ZM530.792,846.685L530.792,831.021L546.457,831.021L546.457,846.685L530.792,846.685ZM718.767,846.685L718.767,831.021L734.431,831.021L734.431,846.685L750.096,846.685L750.096,862.35L765.76,862.35L765.76,878.015L750.096,878.015L750.096,862.35L734.431,862.35L734.431,846.685L718.767,846.685ZM233.166,862.35L233.166,909.344L280.16,909.344L280.16,862.35L233.166,862.35ZM405.476,878.015L405.476,909.344L421.141,909.344L421.141,893.679L436.805,893.679L436.805,909.344L452.47,909.344L452.47,925.008L468.134,925.008L468.134,940.673L483.799,940.673L483.799,925.008L468.134,925.008L468.134,909.344L452.47,909.344L452.47,893.679L436.805,893.679L436.805,878.015L405.476,878.015ZM656.109,878.015L656.109,893.679L609.115,893.679L609.115,878.015L656.109,878.015ZM358.483,909.344L342.818,909.344L342.818,893.679L358.483,893.679L358.483,909.344ZM483.799,909.344L483.799,925.008L499.463,925.008L499.463,940.673L515.128,940.673L515.128,925.008L499.463,925.008L499.463,909.344L483.799,909.344ZM421.141,925.008L421.141,940.673L436.805,940.673L436.805,925.008L421.141,925.008ZM671.773,925.008L671.773,940.673L687.438,940.673L687.438,925.008L671.773,925.008Z" style="fill:white;"/>
    </g>
</svg>
