<?xml version="1.0" encoding="UTF-8" standalone="no"?>
<!DOCTYPE svg PUBLIC "-//W3C//DTD SVG 1.1//EN" "http://www.w3.org/Graphics/SVG/1.1/DTD/svg11.dtd">
<svg width="100%" height="100%" viewBox="0 0 1024 1024" version="1.1" xmlns="http://www.w3.org/2000/svg" xmlns:xlink="http://www.w3.org/1999/xlink" xml:space="preserve" xmlns:serif="http://www.serif.com/" style="fill-rule:evenodd;clip-rule:evenodd;stroke-linejoin:round;stroke-miterlimit:2;">
    <g id="iOS-App-Store" serif:id="iOS App Store" transform="matrix(1.766773,0,0,1.766773,-356.600639,-637.955272)">
        <path d="M201.837,361.085L201.837,484.028L324.78,484.028L324.78,361.085L201.837,361.085ZM359.907,361.085L359.907,378.648L395.033,378.648L395.033,396.212L430.16,396.212L430.16,361.085L359.907,361.085ZM500.413,361.085L500.413,378.648L517.976,378.648L517.976,413.775L500.413,413.775L500.413,431.338L482.849,431.338L482.849,378.648L465.286,378.648L465.286,396.212L447.723,396.212L447.723,413.775L465.286,413.775L465.286,431.338L430.16,431.338L430.16,466.465L447.723,466.465L447.723,501.591L412.596,501.591L412.596,484.028L395.033,484.028L395.033,466.465L412.596,466.465L412.596,484.028L430.16,484.028L430.16,466.465L412.596,466.465L412.596,448.901L377.47,448.901L377.47,431.338L359.907,431.338L359.907,396.212L342.343,396.212L342.343,501.591L359.907,501.591L359.907,466.465L377.47,466.465L377.47,501.591L395.033,501.591L395.033,519.154L412.596,519.154L412.596,536.718L430.16,536.718L430.16,571.844L447.723,571.844L447.723,589.407L465.286,589.407L465.286,624.534L482.849,624.534L482.849,536.718L465.286,536.718L465.286,448.901L517.976,448.901L517.976,431.338L535.539,431.338L535.539,448.901L553.103,448.901L553.103,501.591L588.229,501.591L588.229,519.154L535.539,519.154L535.539,501.591L500.413,501.591L500.413,466.465L482.849,466.465L482.849,536.718L500.413,536.718L500.413,554.281L517.976,554.281L517.976,571.844L500.413,571.844L500.413,624.534L517.976,624.534L517.976,589.407L535.539,589.407L535.539,606.971L553.103,606.971L553.103,624.534L535.539,624.534L535.539,642.097L588.229,642.097L588.229,694.787L535.539,694.787L535.539,677.224L570.666,677.224L570.666,659.66L517.976,659.66L517.976,642.097L465.286,642.097L465.286,624.534L412.596,624.534L412.596,606.971L447.723,606.971L447.723,589.407L395.033,589.407L395.033,642.097L447.723,642.097L447.723,659.66L482.849,659.66L482.849,677.224L465.286,677.224L465.286,712.35L447.723,712.35L447.723,694.787L430.16,694.787L430.16,659.66L395.033,659.66L395.033,642.097L377.47,642.097L377.47,624.534L359.907,624.534L359.907,642.097L377.47,642.097L377.47,694.787L395.033,694.787L395.033,677.224L412.596,677.224L412.596,694.787L430.16,694.787L430.16,712.35L395.033,712.35L395.033,729.914L377.47,729.914L377.47,694.787L359.907,694.787L359.907,659.66L342.343,659.66L342.343,624.534L324.78,624.534L324.78,606.971L272.09,606.971L272.09,624.534L324.78,624.534L324.78,642.097L307.217,642.097L307.217,659.66L342.343,659.66L342.343,729.914L359.907,729.914L359.907,747.477L377.47,747.477L377.47,800.167L395.033,800.167L395.033,817.73L412.596,817.73L412.596,800.167L395.033,800.167L395.033,765.04L412.596,765.04L412.596,747.477L430.16,747.477L430.16,782.603L465.286,782.603L465.286,800.167L482.849,800.167L482.849,817.73L465.286,817.73L465.286,800.167L430.16,800.167L430.16,782.603L412.596,782.603L412.596,800.167L430.16,800.167L430.16,817.73L465.286,817.73L465.286,835.293L482.849,835.293L482.849,870.42L535.539,870.42L535.539,887.983L553.103,887.983L553.103,870.42L535.539,870.42L535.539,852.856L500.413,852.856L500.413,835.293L517.976,835.293L517.976,817.73L500.413,817.73L500.413,800.167L482.849,800.167L482.849,747.477L430.16,747.477L430.16,729.914L535.539,729.914L535.539,747.477L553.103,747.477L553.103,729.914L570.666,729.914L570.666,765.04L535.539,765.04L535.539,747.477L517.976,747.477L517.976,765.04L535.539,765.04L535.539,782.603L588.229,782.603L588.229,800.167L605.792,800.167L605.792,835.293L588.229,835.293L588.229,817.73L553.103,817.73L553.103,800.167L535.539,800.167L535.539,817.73L553.103,817.73L553.103,870.42L570.666,870.42L570.666,852.856L588.229,852.856L588.229,870.42L605.792,870.42L605.792,852.856L623.356,852.856L623.356,905.546L640.919,905.546L640.919,923.109L658.482,923.109L658.482,905.546L693.609,905.546L693.609,923.109L746.298,923.109L746.298,940.673L763.862,940.673L763.862,923.109L746.298,923.109L746.298,887.983L728.735,887.983L728.735,852.856L746.298,852.856L746.298,887.983L781.425,887.983L781.425,870.42L763.862,870.42L763.862,852.856L781.425,852.856L781.425,835.293L763.862,835.293L763.862,817.73L746.298,817.73L746.298,800.167L728.735,800.167L728.735,835.293L711.172,835.293L711.172,782.603L658.482,782.603L658.482,765.04L623.356,765.04L623.356,782.603L588.229,782.603L588.229,729.914L570.666,729.914L570.666,712.35L588.229,712.35L588.229,729.914L605.792,729.914L605.792,747.477L623.356,747.477L623.356,729.914L605.792,729.914L605.792,677.224L623.356,677.224L623.356,729.914L658.482,729.914L658.482,747.477L676.045,747.477L676.045,765.04L728.735,765.04L728.735,782.603L763.862,782.603L763.862,817.73L781.425,817.73L781.425,765.04L763.862,765.04L763.862,747.477L746.298,747.477L746.298,729.914L728.735,729.914L728.735,712.35L746.298,712.35L746.298,694.787L763.862,694.787L763.862,677.224L746.298,677.224L746.298,659.66L728.735,659.66L728.735,642.097L746.298,642.097L746.298,624.534L763.862,624.534L763.862,606.971L781.425,606.971L781.425,589.407L728.735,589.407L728.735,571.844L763.862,571.844L763.862,536.718L781.425,536.718L781.425,519.154L746.298,519.154L746.298,501.591L658.482,501.591L658.482,536.718L693.609,536.718L693.609,589.407L711.172,589.407L711.172,606.971L728.735,606.971L728.735,624.534L711.172,624.534L711.172,606.971L693.609,606.971L693.609,642.097L676.045,642.097L676.045,589.407L658.482,589.407L658.482,606.971L623.356,606.971L623.356,589.407L605.792,589.407L605.792,606.971L623.356,606.971L623.356,624.534L640.919,624.534L640.919,659.66L658.482,659.66L658.482,677.224L623.356,677.224L623.356,624.534L605.792,624.534L605.792,642.097L588.229,642.097L588.229,589.407L570.666,589.407L570.666,571.844L553.103,571.844L553.103,554.281L517.976,554.281L517.976,536.718L500.413,536.718L500.413,519.154L517.976,519.154L517.976,536.718L553.103,536.718L553.103,554.281L570.666,554.281L570.666,571.844L588.229,571.844L588.229,554.281L570.666,554.281L570.666,536.718L640.919,536.718L640.919,501.591L623.356,501.591L623.356,484.028L605.792,484.028L605.792,466.465L588.229,466.465L588.229,448.901L640.919,448.901L640.919,413.775L623.356,413.775L623.356,396.212L605.792,396.212L605.792,378.648L570.666,378.648L570.666,361.085L500.413,361.085ZM605.792,361.085L605.792,378.648L623.356,378.648L623.356,396.212L640.919,396.212L640.919,378.648L623.356,378.648L623.356,361.085L605.792,361.085ZM658.482,361.085L658.482,484.028L781.425,484.028L781.425,361.085L658.482,361.085ZM307.217,378.648L307.217,466.465L219.401,466.465L219.401,378.648L307.217,378.648ZM553.103,378.648L553.103,396.212L535.539,396.212L535.539,378.648L553.103,378.648ZM763.862,378.648L763.862,466.465L676.045,466.465L676.045,378.648L763.862,378.648ZM236.964,396.212L236.964,448.901L289.654,448.901L289.654,396.212L236.964,396.212ZM377.47,396.212L377.47,431.338L412.596,431.338L412.596,413.775L395.033,413.775L395.033,396.212L377.47,396.212ZM693.609,396.212L693.609,448.901L746.298,448.901L746.298,396.212L693.609,396.212ZM605.792,413.775L605.792,431.338L570.666,431.338L570.666,413.775L605.792,413.775ZM570.666,448.901L553.103,448.901L553.103,431.338L570.666,431.338L570.666,448.901ZM517.976,466.465L517.976,484.028L535.539,484.028L535.539,466.465L517.976,466.465ZM623.356,466.465L623.356,484.028L640.919,484.028L640.919,466.465L623.356,466.465ZM570.666,484.028L570.666,466.465L588.229,466.465L588.229,484.028L570.666,484.028ZM201.837,501.591L201.837,554.281L219.401,554.281L219.401,571.844L201.837,571.844L201.837,606.971L236.964,606.971L236.964,571.844L272.09,571.844L272.09,554.281L236.964,554.281L236.964,519.154L219.401,519.154L219.401,501.591L201.837,501.591ZM236.964,501.591L236.964,519.154L254.527,519.154L254.527,536.718L272.09,536.718L272.09,554.281L289.654,554.281L289.654,571.844L307.217,571.844L307.217,589.407L324.78,589.407L324.78,571.844L307.217,571.844L307.217,554.281L324.78,554.281L324.78,571.844L342.343,571.844L342.343,519.154L324.78,519.154L324.78,501.591L236.964,501.591ZM289.654,519.154L289.654,536.718L272.09,536.718L272.09,519.154L289.654,519.154ZM377.47,519.154L377.47,536.718L395.033,536.718L395.033,519.154L377.47,519.154ZM711.172,519.154L711.172,536.718L728.735,536.718L728.735,554.281L711.172,554.281L711.172,536.718L693.609,536.718L693.609,519.154L711.172,519.154ZM307.217,536.718L307.217,519.154L324.78,519.154L324.78,536.718L307.217,536.718ZM359.907,554.281L359.907,589.407L377.47,589.407L377.47,554.281L359.907,554.281ZM395.033,554.281L395.033,571.844L412.596,571.844L412.596,554.281L395.033,554.281ZM465.286,554.281L465.286,571.844L447.723,571.844L447.723,554.281L465.286,554.281ZM605.792,554.281L605.792,571.844L623.356,571.844L623.356,589.407L640.919,589.407L640.919,554.281L605.792,554.281ZM658.482,554.281L658.482,571.844L676.045,571.844L676.045,554.281L658.482,554.281ZM342.343,589.407L342.343,606.971L359.907,606.971L359.907,589.407L342.343,589.407ZM570.666,606.971L553.103,606.971L553.103,589.407L535.539,589.407L535.539,571.844L553.103,571.844L553.103,589.407L570.666,589.407L570.666,606.971ZM236.964,624.534L236.964,642.097L254.527,642.097L254.527,659.66L272.09,659.66L272.09,624.534L236.964,624.534ZM201.837,642.097L201.837,659.66L219.401,659.66L219.401,677.224L201.837,677.224L201.837,694.787L254.527,694.787L254.527,712.35L289.654,712.35L289.654,729.914L324.78,729.914L324.78,747.477L307.217,747.477L307.217,765.04L342.343,765.04L342.343,729.914L324.78,729.914L324.78,712.35L289.654,712.35L289.654,677.224L272.09,677.224L272.09,694.787L254.527,694.787L254.527,659.66L219.401,659.66L219.401,642.097L201.837,642.097ZM763.862,642.097L763.862,677.224L781.425,677.224L781.425,642.097L763.862,642.097ZM676.045,659.66L658.482,659.66L658.482,642.097L676.045,642.097L676.045,659.66ZM711.172,659.66L711.172,677.224L728.735,677.224L728.735,694.787L711.172,694.787L711.172,677.224L693.609,677.224L693.609,659.66L711.172,659.66ZM307.217,677.224L307.217,694.787L324.78,694.787L324.78,677.224L307.217,677.224ZM517.976,677.224L517.976,694.787L535.539,694.787L535.539,712.35L482.849,712.35L482.849,694.787L500.413,694.787L500.413,677.224L517.976,677.224ZM676.045,694.787L676.045,729.914L728.735,729.914L728.735,747.477L746.298,747.477L746.298,765.04L728.735,765.04L728.735,747.477L676.045,747.477L676.045,729.914L658.482,729.914L658.482,694.787L676.045,694.787ZM219.401,712.35L219.401,729.914L201.837,729.914L201.837,800.167L219.401,800.167L219.401,747.477L272.09,747.477L272.09,765.04L254.527,765.04L254.527,782.603L236.964,782.603L236.964,800.167L272.09,800.167L272.09,782.603L289.654,782.603L289.654,800.167L342.343,800.167L342.343,817.73L377.47,817.73L377.47,835.293L342.343,835.293L342.343,905.546L359.907,905.546L359.907,923.109L342.343,923.109L342.343,940.673L377.47,940.673L377.47,923.109L412.596,923.109L412.596,887.983L377.47,887.983L377.47,870.42L359.907,870.42L359.907,852.856L395.033,852.856L395.033,817.73L377.47,817.73L377.47,800.167L342.343,800.167L342.343,782.603L289.654,782.603L289.654,729.914L254.527,729.914L254.527,712.35L219.401,712.35ZM763.862,712.35L763.862,747.477L781.425,747.477L781.425,712.35L763.862,712.35ZM500.413,782.603L500.413,800.167L517.976,800.167L517.976,782.603L500.413,782.603ZM693.609,800.167L693.609,852.856L640.919,852.856L640.919,800.167L693.609,800.167ZM201.837,817.73L201.837,940.673L324.78,940.673L324.78,817.73L201.837,817.73ZM658.482,817.73L658.482,835.293L676.045,835.293L676.045,817.73L658.482,817.73ZM307.217,835.293L307.217,923.109L219.401,923.109L219.401,835.293L307.217,835.293ZM412.596,835.293L412.596,852.856L430.16,852.856L430.16,835.293L412.596,835.293ZM236.964,852.856L236.964,905.546L289.654,905.546L289.654,852.856L236.964,852.856ZM447.723,852.856L447.723,870.42L465.286,870.42L465.286,852.856L447.723,852.856ZM412.596,870.42L412.596,887.983L447.723,887.983L447.723,870.42L412.596,870.42ZM693.609,870.42L693.609,887.983L711.172,887.983L711.172,905.546L693.609,905.546L693.609,887.983L658.482,887.983L658.482,870.42L693.609,870.42ZM465.286,887.983L465.286,905.546L482.849,905.546L482.849,923.109L500.413,923.109L500.413,940.673L535.539,940.673L535.539,923.109L500.413,923.109L500.413,905.546L482.849,905.546L482.849,887.983L465.286,887.983ZM570.666,887.983L570.666,905.546L553.103,905.546L553.103,923.109L588.229,923.109L588.229,940.673L640.919,940.673L640.919,923.109L588.229,923.109L588.229,905.546L605.792,905.546L605.792,887.983L570.666,887.983ZM430.16,905.546L430.16,923.109L465.286,923.109L465.286,940.673L482.849,940.673L482.849,923.109L465.286,923.109L465.286,905.546L430.16,905.546ZM676.045,923.109L676.045,940.673L693.609,940.673L693.609,923.109L676.045,923.109Z" style="fill:white;"/>
    </g>
</svg>
